<svg width="19" height="19" viewBox="0 0 19 19" fill="none" xmlns="http://www.w3.org/2000/svg">
<path d="M17.0729 6.77212L15.7896 5.48879L16.4771 4.77837L13.5437 1.84504L12.8333 2.53254L11.5271 1.22629L12.2146 0.515869C12.566 0.16448 13.0014 -0.00739509 13.5208 0.000243794C14.0403 0.00788268 14.4757 0.187397 14.8271 0.538785L17.7833 3.49504C18.1347 3.84642 18.3104 4.27802 18.3104 4.78983C18.3104 5.30163 18.1347 5.73323 17.7833 6.08462L17.0729 6.77212ZM6.07292 17.795C5.72153 18.1464 5.28993 18.3221 4.77812 18.3221C4.26632 18.3221 3.83472 18.1464 3.48333 17.795L0.527083 14.8388C0.175694 14.4874 0 14.0558 0 13.544C0 13.0322 0.175694 12.6006 0.527083 12.2492L1.21458 11.5617L2.52083 12.868L1.81042 13.5555L4.76667 16.5117L5.45417 15.8013L6.76042 17.1075L6.07292 17.795ZM15.1708 10.095L16.4771 8.78879L9.53333 1.84504L8.22708 3.15129L15.1708 10.095ZM8.75417 16.5117L10.0604 15.1825L3.13958 8.2617L1.81042 9.56795L8.75417 16.5117ZM8.61667 11.1492L11.1375 8.65129L9.67083 7.18462L7.17292 9.70545L8.61667 11.1492ZM10.0604 17.795C9.70903 18.1464 9.27361 18.3221 8.75417 18.3221C8.23472 18.3221 7.79931 18.1464 7.44792 17.795L0.527083 10.8742C0.175694 10.5228 0 10.0874 0 9.56795C0 9.04851 0.175694 8.61309 0.527083 8.2617L1.83333 6.95545C2.18472 6.60406 2.61632 6.42837 3.12812 6.42837C3.63993 6.42837 4.07153 6.60406 4.42292 6.95545L5.86667 8.3992L8.3875 5.87837L6.94375 4.45754C6.59236 4.10615 6.41667 3.67073 6.41667 3.15129C6.41667 2.63184 6.59236 2.19642 6.94375 1.84504L8.25 0.538785C8.60139 0.187397 9.03299 0.0117021 9.54479 0.0117021C10.0566 0.0117021 10.4882 0.187397 10.8396 0.538785L17.7833 7.48254C18.1347 7.83392 18.3104 8.26552 18.3104 8.77733C18.3104 9.28913 18.1347 9.72073 17.7833 10.0721L16.4771 11.3784C16.1257 11.7298 15.6903 11.9055 15.1708 11.9055C14.6514 11.9055 14.216 11.7298 13.8646 11.3784L12.4438 9.93462L9.92292 12.4555L11.3667 13.8992C11.7181 14.2506 11.8938 14.6822 11.8938 15.194C11.8938 15.7058 11.7181 16.1374 11.3667 16.4888L10.0604 17.795Z" fill="#94A3B8"/>
</svg>
